<svg id="Layer_1" data-name="Layer 1" xmlns="http://www.w3.org/2000/svg" xmlns:xlink="http://www.w3.org/1999/xlink" viewBox="0 0 128.26 38.29"><defs><style>.cls-1{fill:none;}.cls-2{clip-path:url(#clip-path);}.cls-3{fill:#fff;}.cls-4{fill:#9b111e;}</style><clipPath id="clip-path"><rect class="cls-1" width="128.26" height="38.29"/></clipPath></defs><g class="cls-2"><g id="Group_1545" data-name="Group 1545"><path id="Path_511" data-name="Path 511" class="cls-3" d="M108.7,38.22H4.8c-3.6,0-5.87-4.08-4.13-7.4L15.42,2.65A4.7,4.7,0,0,1,19.56.08h103.9c3.6,0,5.88,4.07,4.13,7.4L112.84,35.64a4.69,4.69,0,0,1-4.14,2.58"/><path id="Path_512" data-name="Path 512" class="cls-1" d="M108.7,38.22H4.8c-3.6,0-5.87-4.08-4.13-7.4L15.42,2.65A4.7,4.7,0,0,1,19.56.08h103.9c3.6,0,5.88,4.07,4.13,7.4L112.84,35.64A4.69,4.69,0,0,1,108.7,38.22Z"/></g></g><path class="cls-4" d="M42.72,25.46,42.2,24A2.27,2.27,0,0,0,40,22.43H38.29l-1,6.21H29.46L32.54,9.21H46.12c4.88,0,7.58,2,7.58,5.53,0,3.08-2,5.34-5.53,6.37v0a2.22,2.22,0,0,1,1.24,1.56L50,24.05a1.25,1.25,0,0,0,1.24.87,3,3,0,0,0,1.24-.35L53,27.75a10.68,10.68,0,0,1-5.26,1.38A4.94,4.94,0,0,1,42.72,25.46ZM39,18h3.89c1.86,0,2.91-.81,2.91-2.24,0-1.08-.81-1.67-2.29-1.67H39.58Z"/><path class="cls-4" d="M54.33,28.64,57.41,9.21H75l-.83,5.26h-10l-.33,2.08h8.91L72,21H63.1l-.38,2.38H73l-.84,5.26Z"/><path class="cls-4" d="M74,28.64,77.12,9.21H88.05c6.91,0,10.74,2.86,10.74,8.15,0,7.21-4.72,11.28-13.28,11.28Zm8.42-5.53H85.7c3.43,0,5.34-1.81,5.34-4.89,0-2.29-1.43-3.48-4-3.48H83.81Z"/></svg>