<svg xmlns="http://www.w3.org/2000/svg" width="37.087" height="37.086" viewBox="0 0 37.087 37.086">
  <g id="Group_9226" data-name="Group 9226" transform="translate(-736.916 -509.914)">
    <path id="Path_3474" data-name="Path 3474" d="M485.228,243.757a18.544,18.544,0,1,1-18.543-18.543,18.543,18.543,0,0,1,18.543,18.543" transform="translate(288.775 284.7)" fill="#9b111e" fill-rule="evenodd"/>
    <path id="Path_3475" data-name="Path 3475" d="M471.535,250.174c.342-.143.676-.27,1-.42s.624-.322.967-.5c-.163-.139-.3-.259-.442-.369a.156.156,0,0,0-.134.008,11.489,11.489,0,0,1-3.982,1.147,16.778,16.778,0,0,1-1.719.138,11.664,11.664,0,0,1-1.409-.08,13.429,13.429,0,0,1-3.168-.659c-.429-.152-.842-.35-1.258-.538a.177.177,0,0,0-.225.026c-.112.1-.23.2-.368.321a9.3,9.3,0,0,0,1.959.9.867.867,0,0,1-.033.1,11.008,11.008,0,0,1-1.112,1.829.208.208,0,0,1-.274.082,21.862,21.862,0,0,1-4.994-2.389c-.215-.142-.426-.292-.629-.45a.35.35,0,0,1-.123-.2,14.119,14.119,0,0,1-.1-2.271,19.832,19.832,0,0,1,3.5-10.622.739.739,0,0,1,.288-.241,21.71,21.71,0,0,1,3.92-1.252c.174-.042.349-.077.522-.122a.145.145,0,0,1,.192.085c.171.342.35.679.516,1.023.045.094.082.137.2.119a18.532,18.532,0,0,1,3.444-.143c.529.017,1.057.087,1.584.142a.172.172,0,0,0,.212-.119c.163-.345.344-.681.515-1.023a.148.148,0,0,1,.193-.084,23.723,23.723,0,0,1,4.456,1.38.649.649,0,0,1,.256.211,19.838,19.838,0,0,1,3.254,8,19.284,19.284,0,0,1,.258,2.573,14.167,14.167,0,0,1-.1,2.33.376.376,0,0,1-.137.226,18.048,18.048,0,0,1-3.875,2.165c-.571.24-1.158.441-1.737.664a.193.193,0,0,1-.264-.071,10.959,10.959,0,0,1-1.133-1.867.4.4,0,0,1-.016-.053m-6.142-5.913a2.462,2.462,0,0,0-.3-1.214,1.989,1.989,0,0,0-3.4-.284,2.5,2.5,0,0,0,.109,3.122,1.946,1.946,0,0,0,2.679.29,2.345,2.345,0,0,0,.915-1.914m3.5-.013a2.4,2.4,0,0,0,.524,1.548,1.968,1.968,0,0,0,3.024.143,2.509,2.509,0,0,0,.223-3.084,1.963,1.963,0,0,0-2.934-.455,2.319,2.319,0,0,0-.837,1.848" transform="translate(288.775 284.7)" fill="#fff"/>
  </g>
</svg>
