<svg xmlns="http://www.w3.org/2000/svg" width="37.087" height="37.086" viewBox="0 0 37.087 37.086">
  <g id="Group_9224" data-name="Group 9224" transform="translate(-643.45 -547)">
    <path id="Path_3407" data-name="Path 3407" d="M154.537,18.543A18.544,18.544,0,1,1,135.994,0a18.543,18.543,0,0,1,18.543,18.543" transform="translate(526 547)" fill="#9b111e" fill-rule="evenodd"/>
    <path id="Path_3408" data-name="Path 3408" d="M135.994,10.281c2.691,0,3.01.011,4.072.059a5.583,5.583,0,0,1,1.872.347A3.332,3.332,0,0,1,143.85,12.6a5.555,5.555,0,0,1,.347,1.871c.049,1.063.059,1.382.059,4.073s-.01,3.01-.059,4.071a5.565,5.565,0,0,1-.347,1.873,3.329,3.329,0,0,1-1.912,1.911,5.576,5.576,0,0,1-1.872.348c-1.062.048-1.381.059-4.072.059s-3.01-.011-4.073-.059a5.574,5.574,0,0,1-1.871-.348,3.335,3.335,0,0,1-1.913-1.911,5.591,5.591,0,0,1-.347-1.873c-.048-1.061-.059-1.381-.059-4.071s.011-3.01.059-4.073a5.581,5.581,0,0,1,.347-1.871,3.338,3.338,0,0,1,1.913-1.913,5.581,5.581,0,0,1,1.871-.347c1.063-.048,1.382-.059,4.073-.059m0-1.816c-2.737,0-3.081.012-4.155.061a7.377,7.377,0,0,0-2.447.469,5.141,5.141,0,0,0-2.947,2.947,7.377,7.377,0,0,0-.469,2.447c-.049,1.075-.061,1.418-.061,4.155s.012,3.079.061,4.154a7.4,7.4,0,0,0,.469,2.448,5.143,5.143,0,0,0,2.947,2.946,7.377,7.377,0,0,0,2.447.469c1.074.049,1.418.061,4.155.061s3.08-.012,4.155-.061a7.371,7.371,0,0,0,2.446-.469,5.141,5.141,0,0,0,2.948-2.946,7.4,7.4,0,0,0,.468-2.448c.05-1.075.061-1.418.061-4.154s-.011-3.08-.061-4.155a7.38,7.38,0,0,0-.468-2.447A5.139,5.139,0,0,0,142.6,8.995a7.371,7.371,0,0,0-2.446-.469c-1.075-.049-1.418-.061-4.155-.061m0,4.9a5.175,5.175,0,1,0,5.175,5.176,5.177,5.177,0,0,0-5.175-5.176m0,8.535a3.359,3.359,0,1,1,3.359-3.359,3.359,3.359,0,0,1-3.359,3.359m6.589-8.74a1.209,1.209,0,1,1-1.209-1.208,1.209,1.209,0,0,1,1.209,1.208" transform="translate(526 547)" fill="#fff"/>
  </g>
</svg>
