<svg xmlns="http://www.w3.org/2000/svg" xmlns:xlink="http://www.w3.org/1999/xlink" width="37.087" height="37.086" viewBox="0 0 37.087 37.086">
  <defs>
    <clipPath id="clip-path">
      <rect id="Rectangle_3515" data-name="Rectangle 3515" width="20.713" height="18.632" fill="none"/>
    </clipPath>
  </defs>
  <g id="Group_9229" data-name="Group 9229" transform="translate(-760.9 -547)">
    <path id="Path_3478" data-name="Path 3478" d="M271.987,18.543A18.544,18.544,0,1,1,253.444,0a18.543,18.543,0,0,1,18.543,18.543" transform="translate(526 547)" fill="#9b111e" fill-rule="evenodd"/>
    <g id="Group_9228" data-name="Group 9228" transform="translate(769.105 554.434)">
      <g id="Group_9227" data-name="Group 9227" clip-path="url(#clip-path)">
        <path id="Path_3476" data-name="Path 3476" d="M3.747,17.874l.067-.1,4.364-6.815a.148.148,0,0,1,.269.034c.739,1.645,1.343,3.659,1.074,4.935a7.117,7.117,0,0,1-.873,1.88.731.731,0,0,1-.168.269.174.174,0,0,1-.134.067h-4.5a.186.186,0,0,1-.1-.269" transform="translate(-2.471 -7.232)" fill="#fff"/>
        <path id="Path_3477" data-name="Path 3477" d="M20.713,11.918v1.074c0,.067-.034.1-.1.134a5.155,5.155,0,0,0-1.981,1.343c-1.242,1.712-2.182,4.163-4.264,4.163H5.606A5.624,5.624,0,0,1,0,12.992v-.1a.144.144,0,0,1,.134-.134H5.069a.18.18,0,0,1,.168.168,1.869,1.869,0,0,0,.168.94,1.707,1.707,0,0,0,1.544.94H9.366v-1.88H6.983a.151.151,0,0,1-.134-.235.463.463,0,0,0,.1-.134c.235-.336.537-.806.873-1.376a8.121,8.121,0,0,0,.6-1.209,1.637,1.637,0,0,0,.1-.235c.034-.134.1-.269.134-.369l.1-.3a5.659,5.659,0,0,0,.1-1.108,2.378,2.378,0,0,0-.034-.47c0-.168-.034-.336-.034-.5a1.965,1.965,0,0,0-.067-.436,4.753,4.753,0,0,0-.134-.671l-.034-.067a2.172,2.172,0,0,0-.134-.436,12.526,12.526,0,0,0-.47-1.343l-.2-.5c-.1-.235-.2-.47-.3-.671-.034-.1-.1-.168-.134-.269s-.1-.2-.134-.3l-.1-.2-.3-.537c-.034-.067.034-.168.1-.134l1.846.5.235.067.269.067.1.034V.974A.968.968,0,0,1,10.273,0a.937.937,0,0,1,.671.269.937.937,0,0,1,.269.671V2.551l.2.067a.033.033,0,0,1,.034.034,1.278,1.278,0,0,0,.2.168,1.46,1.46,0,0,0,.235.2c.168.134.4.336.638.537.067.067.134.1.168.168a13.282,13.282,0,0,1,.974.974c.1.1.168.2.269.3s.168.235.269.336c.1.134.235.3.336.436a1.46,1.46,0,0,1,.134.235c.134.2.235.4.369.6.034.1.1.2.134.3a2.458,2.458,0,0,1,.269.839.365.365,0,0,1,.034.168.654.654,0,0,1,.034.269,3.8,3.8,0,0,1-.034.873c-.034.134-.067.235-.1.369a2.55,2.55,0,0,1-.134.369,7.1,7.1,0,0,1-.369.7,3.1,3.1,0,0,1-.168.269,1.178,1.178,0,0,0-.168.269c-.067.1-.168.2-.235.3a1.845,1.845,0,0,1-.235.3c-.1.134-.235.269-.336.4a1.551,1.551,0,0,1-.235.235,1.551,1.551,0,0,1-.235.235,2.172,2.172,0,0,1-.3.269l-.2.168a.123.123,0,0,1-.1.034H11.179v1.88h1.846a1.669,1.669,0,0,0,1.108-.4c.1-.1.571-.5,1.141-1.108.034-.034.034-.034.067-.034l5.1-1.477c.2-.1.269-.034.269.067" fill="#fff"/>
      </g>
    </g>
  </g>
</svg>
