<svg xmlns="http://www.w3.org/2000/svg" width="37.086" height="37.087" viewBox="0 0 37.086 37.087">
  <g id="Group_9225" data-name="Group 9225" transform="translate(-526 -599)">
    <path id="Path_3403" data-name="Path 3403" d="M18.543,0A18.544,18.544,0,1,0,37.086,18.543,18.543,18.543,0,0,0,18.543,0" transform="translate(526 599)" fill="#9b111e"/>
    <path id="Path_3404" data-name="Path 3404" d="M27.57,11.011a.42.42,0,0,0-.288-.313,1.473,1.473,0,0,0-.778.055S9.173,16.982,8.183,17.672c-.213.148-.284.235-.32.336-.171.491.362.708.362.708l4.467,1.455a.5.5,0,0,0,.226-.013c1.016-.642,10.224-6.457,10.755-6.652.084-.025.146,0,.129.062-.213.745-8.21,7.854-8.21,7.854a.386.386,0,0,0-.049.082l-.011-.006-.417,4.431s-.174,1.357,1.183,0c.958-.958,1.884-1.759,2.348-2.149,1.536,1.06,3.189,2.233,3.9,2.847a1.243,1.243,0,0,0,.9.349c.677-.025.866-.769.866-.769S27.477,13.5,27.583,11.793c.01-.167.024-.273.026-.388a1.419,1.419,0,0,0-.039-.394" transform="translate(526 599)" fill="#fff"/>
  </g>
</svg>
