<svg xmlns="http://www.w3.org/2000/svg" width="37.087" height="37.086" viewBox="0 0 37.087 37.086">
  <g id="Group_9223" data-name="Group 9223" transform="translate(-576.913 -547)">
    <path id="Path_3401" data-name="Path 3401" d="M95.812,18.543A18.543,18.543,0,1,1,77.269,0,18.543,18.543,0,0,1,95.812,18.543" transform="translate(518.188 547)" fill="#9b111e" fill-rule="evenodd"/>
    <path id="Path_3402" data-name="Path 3402" d="M73.521,29.223a13.914,13.914,0,0,0,14.01-14.01q0-.32-.014-.636a10.009,10.009,0,0,0,2.456-2.55,9.822,9.822,0,0,1-2.828.775,4.943,4.943,0,0,0,2.166-2.723,9.873,9.873,0,0,1-3.127,1.195,4.928,4.928,0,0,0-8.391,4.49A13.977,13.977,0,0,1,67.644,10.62a4.927,4.927,0,0,0,1.524,6.573,4.875,4.875,0,0,1-2.23-.616c0,.021,0,.042,0,.063a4.925,4.925,0,0,0,3.95,4.827,4.9,4.9,0,0,1-2.224.085,4.93,4.93,0,0,0,4.6,3.42,9.964,9.964,0,0,1-7.29,2.039,13.937,13.937,0,0,0,7.548,2.212" transform="translate(518.188 547)" fill="#fff"/>
  </g>
</svg>
